<?xml version="1.0" encoding="UTF-8"?>
<svg width="100pt" height="100pt" version="1.1" viewBox="0 0 100 100" xmlns="http://www.w3.org/2000/svg">
 <g>
  <path d="m88.398 96.406v-64.004h6.4062v-32.012h-12.793v9.6094h-9.6094v-9.6094h-17.598v9.6094h-9.6094v-9.6094h-17.598v9.6094h-9.6094v-9.6094h-12.793v32.012h6.4062v64.004h-11.211v3.2031h99.219v-3.2031zm-80-67.207v-25.605h6.4062v9.6094h15.996v-9.6094h11.191v9.6094h16.016v-9.6094h11.211v9.6094h15.996v-9.6094h6.3867v25.605zm31.992 67.207v-32.012h19.199v32.012zm44.824 0h-22.422v-35.195h-25.586v35.215h-22.422v-64.023h70.41v64.004z"/>
  <path d="m32.402 70.801h-12.793v12.793h12.793zm-3.2031 9.6094h-6.4062v-6.4062h6.4062z"/>
  <path d="m80.41 70.801h-12.793v12.793h12.793zm-3.2031 9.6094h-6.4062v-6.4062h6.4062z"/>
  <path d="m50 54.805c4.4141 0 8.0078-3.5938 8.0078-8.0078s-3.5938-8.0078-8.0078-8.0078-8.0078 3.5938-8.0078 8.0078 3.5938 8.0078 8.0078 8.0078zm0-12.812c2.6562 0 4.8047 2.1484 4.8047 4.8047s-2.1484 4.8047-4.8047 4.8047-4.8047-2.1484-4.8047-4.8047 2.1484-4.8047 4.8047-4.8047z"/>
  <path d="m48.398 19.59h3.2031v3.2031h-3.2031z"/>
  <path d="m54.805 19.59h3.2031v3.2031h-3.2031z"/>
  <path d="m41.992 19.59h3.2031v3.2031h-3.2031z"/>
 </g>
</svg>