<?xml version="1.0" encoding="UTF-8"?>
<svg width="100pt" height="100pt" version="1.1" viewBox="0 0 100 100" xmlns="http://www.w3.org/2000/svg">
 <path d="m33.586 8.1094-20.312 0.19531c-0.84766 0.007812-1.5352 0.69531-1.543 1.543l-0.19531 20.312c-0.007812 0.48438 0.20703 0.94141 0.58594 1.2461l21.367 17.039-4.9297 6.1797-1.8008-1.8008c-0.30078-0.29688-0.70703-0.45703-1.1289-0.44531-0.40625 0-0.79688 0.16406-1.0859 0.44531l-7.3008 7.3008c-0.29688 0.29297-0.46094 0.69141-0.46094 1.1094 0 0.41406 0.16406 0.8125 0.46094 1.1055l2.9922 2.9922c-0.27734 0.21094-0.54688 0.43359-0.80078 0.6875l-12.457 12.461c-3.0625 3.0625-3.0469 8.0586 0.011719 11.117 3.0586 3.0586 8.0547 3.0625 11.117 0l12.449-12.445c0.25781-0.25781 0.48047-0.52734 0.69141-0.80859l2.9883 2.9883c0.29297 0.29297 0.69141 0.45703 1.1055 0.45703 0.41406 0 0.8125-0.16406 1.1055-0.45703l7.3047-7.3008c0.60547-0.60938 0.60547-1.5938 0-2.2031l-1.8008-1.8008 8.0469-6.4219 8.0547 6.4219-1.7969 1.8008h-0.003906c-0.60547 0.60938-0.60547 1.5938 0 2.2031l7.3008 7.3008c0.29297 0.29297 0.69141 0.45703 1.1094 0.45703 0.41406 0 0.8125-0.16406 1.1055-0.45703l2.9883-2.9883c0.21094 0.28125 0.4375 0.55469 0.69141 0.80859l12.445 12.445c3.0625 3.0625 8.0586 3.0586 11.117 0 3.0586-3.0586 3.0742-8.0547 0.011719-11.117l-12.457-12.457c-0.25391-0.25391-0.52344-0.47656-0.80078-0.6875l2.9961-2.9961c0.29297-0.29297 0.46094-0.69141 0.46094-1.1055 0-0.41797-0.16797-0.81641-0.46094-1.1094l-7.3008-7.3008c-0.30078-0.29688-0.71094-0.45703-1.1328-0.44531-0.40625 0-0.79297 0.16406-1.082 0.44531l-1.7969 1.8008-4.9336-6.1875 21.367-17.035v0.003906c0.375-0.30078 0.59375-0.76172 0.58594-1.2461l-0.19531-20.312c-0.007812-0.85156-0.69531-1.5352-1.5469-1.543l-20.309-0.19531c-0.48047-0.003906-0.9375 0.21094-1.2344 0.58594l-15.18 19.035-15.18-19.035v0.003907c-0.30078-0.37891-0.75391-0.59375-1.2344-0.58984zm-0.72656 3.1367 36.363 45.598-8.9492 8.957-45.605-36.367 0.16016-18.02zm34.281 0 18.027 0.17188 0.17578 18.02-20.773 16.566-12.57-15.762zm-31.215 39.141 11.562 9.2188-7.7617 6.1953-8.9492-8.957zm-10.273 5.7578 1.875 1.875c0.015625 0.019531 0.03125 0.039063 0.050781 0.054688l10.922 10.922s0 0.003906 0.003906 0.003906l1.9336 1.9336-5.0977 5.0859-3.3008-3.3008v0.003906c-0.015624-0.015625-0.03125-0.03125-0.046874-0.046875l-8.082-8.0977c-0.039062-0.035156-0.078125-0.070313-0.11719-0.10547l-3.2422-3.2383zm48.695 0 5.0859 5.0859-3.3047 3.3047v0.003906c-0.011718 0.011719-0.023437 0.027344-0.039062 0.039063l-8.0859 8.0977-3.3438 3.3438-5.0859-5.0859 12.852-12.859h-0.003906c0.003906-0.003907 0.007813-0.011719 0.011719-0.015625zm-51.789 11.512 3.1797 3.1836 3.1875 3.1875c-0.1875 0.30859-0.3125 0.64453-0.57812 0.91016l-12.457 12.457c-1.875 1.875-4.8242 1.8633-6.7031-0.011719-1.875-1.875-1.875-4.8281 0-6.7031l12.445-12.445c0.26563-0.26562 0.61328-0.39062 0.92578-0.57812zm54.879 0c0.30859 0.1875 0.65625 0.3125 0.92188 0.57812l12.445 12.449c1.875 1.875 1.875 4.8242 0 6.6992s-4.8281 1.8867-6.7031 0.011719l-12.445-12.457c-0.26562-0.26562-0.39062-0.61328-0.57812-0.92188z"/>
</svg>
